<svg id="Layer_1" data-name="Layer 1" xmlns="http://www.w3.org/2000/svg" viewBox="0 0 288 72"><defs><style>.cls-1{fill:#fff;}</style></defs><path class="cls-1" d="M60.27,1V71a1,1,0,0,1-1,1H51.93a10,10,0,0,1-8.39-4.57l-33-51.08,1.13,25.51V71a1,1,0,0,1-1,1H1a1,1,0,0,1-1-1V1A1,1,0,0,1,1,0H8.24a10,10,0,0,1,8.4,4.56l33,51-1-25.4V1a1,1,0,0,1,1-1h9.62A1,1,0,0,1,60.27,1Z"/><path class="cls-1" d="M158.69,72h-10.2a1,1,0,0,1-.93-1.36L174.54,1a1.5,1.5,0,0,1,1.4-1h12.75a1.5,1.5,0,0,1,1.4,1l27,69.68a1,1,0,0,1-.94,1.36H205.94a1,1,0,0,1-.93-.65L183.25,14a1,1,0,0,0-1.87,0L159.62,71.35A1,1,0,0,1,158.69,72Z"/><path class="cls-1" d="M287.79,70.38,267.55,44.54c11.42-2.16,18.11-9.88,18.11-21.71C285.66,9.26,276.81,0,261.18,0H233a1.5,1.5,0,0,0-1.5,1.5h0a9.61,9.61,0,0,0,9.61,9.61h18.88c9.47,0,14,4.83,14,11.83s-4.42,11.93-14,11.93H233a1.5,1.5,0,0,0-1.5,1.5V71a1,1,0,0,0,1,1h9.62a1,1,0,0,0,1-1V45.15h11.11l17.57,22.93A10,10,0,0,0,279.69,72H287A1,1,0,0,0,287.79,70.38Z"/><path class="cls-1" d="M128.23,0H83.56a1.34,1.34,0,0,0-1.34,1.34h0A9.78,9.78,0,0,0,92,11.11h36.24a1,1,0,0,0,1-1V1A1,1,0,0,0,128.23,0Zm0,60.89H94.85a1,1,0,0,1-1-1V41.83a1,1,0,0,1,1-1h30.81a1,1,0,0,0,1-1v-9.1a1,1,0,0,0-1-1H83.72a1.5,1.5,0,0,0-1.5,1.5V70.5a1.5,1.5,0,0,0,1.5,1.5h44.51a1,1,0,0,0,1-1V61.89A1,1,0,0,0,128.23,60.89Z"/></svg>