<svg xmlns="http://www.w3.org/2000/svg" viewBox="0 0 432 216"><defs><style>.cls-1{fill:#fff;}</style></defs><g id="Layer_1" data-name="Layer 1"><path class="cls-1" d="M132.27,73v70a1,1,0,0,1-1,1h-7.34a10,10,0,0,1-8.39-4.57L82.49,88.35l1.13,25.51V143a1,1,0,0,1-1,1H73a1,1,0,0,1-1-1V73a1,1,0,0,1,1-1h7.24a10,10,0,0,1,8.4,4.56l33,51-1-25.4V73a1,1,0,0,1,1-1h9.62A1,1,0,0,1,132.27,73Z"/><path class="cls-1" d="M230.69,144h-10.2a1,1,0,0,1-.93-1.36l27-69.68a1.5,1.5,0,0,1,1.4-1h12.75a1.5,1.5,0,0,1,1.4,1l27,69.68a1,1,0,0,1-.94,1.36H277.94a1,1,0,0,1-.93-.65L255.25,86a1,1,0,0,0-1.87,0l-21.76,57.36A1,1,0,0,1,230.69,144Z"/><path class="cls-1" d="M359.79,142.38l-20.24-25.84c11.42-2.16,18.11-9.88,18.11-21.71,0-13.57-8.85-22.83-24.48-22.83H305a1.5,1.5,0,0,0-1.5,1.5h0a9.61,9.61,0,0,0,9.61,9.61h18.88c9.47,0,14,4.83,14,11.83s-4.42,11.93-14,11.93H305a1.5,1.5,0,0,0-1.5,1.5V143a1,1,0,0,0,1,1h9.62a1,1,0,0,0,1-1V117.15h11.11l17.57,22.93a10,10,0,0,0,7.94,3.92H359A1,1,0,0,0,359.79,142.38Z"/><path class="cls-1" d="M200.23,72H155.56a1.34,1.34,0,0,0-1.34,1.34h0A9.78,9.78,0,0,0,164,83.11h36.24a1,1,0,0,0,1-1V73A1,1,0,0,0,200.23,72Zm0,60.89H166.85a1,1,0,0,1-1-1V113.83a1,1,0,0,1,1-1h30.81a1,1,0,0,0,1-1v-9.1a1,1,0,0,0-1-1H155.72a1.5,1.5,0,0,0-1.5,1.5V142.5a1.5,1.5,0,0,0,1.5,1.5h44.51a1,1,0,0,0,1-1v-9.11A1,1,0,0,0,200.23,132.89Z"/></g></svg>